# Blender 4.5.3 LTS
# www.blender.org
mtllib model.mtl
o Wall_0
v -2.900000 0.000000 -2.000000
v -3.100000 0.000000 -2.000000
v -3.100000 0.000000 2.000000
v -2.900000 0.000000 2.000000
v -3.000000 0.000000 1.900000
v -3.000000 0.000000 2.100000
v -0.020000 0.000000 2.100000
v -0.020000 0.000000 1.900000
v 0.079980 0.000000 1.998000
v -0.119980 0.000000 2.002000
v -0.109980 0.000000 2.502000
v 0.089980 0.000000 2.498000
v -0.109820 0.000000 2.494011
v 0.089820 0.000000 2.505989
v 0.119820 0.000000 2.005989
v -0.079820 0.000000 1.994011
v 0.020000 0.000000 1.900000
v 0.020000 0.000000 2.100000
v 3.000000 0.000000 2.100000
v 3.000000 0.000000 1.900000
v 2.900000 0.000000 2.000000
v 3.100000 0.000000 2.000000
v 3.100000 0.000000 -2.000000
v 2.900000 0.000000 -2.000000
v -2.900000 3.500000 -2.000000
v -3.100000 3.500000 -2.000000
v -3.100000 3.500000 2.000000
v -2.900000 3.500000 2.000000
v -3.000000 3.500000 1.900000
v -3.000000 3.500000 2.100000
v -0.020000 3.500000 2.100000
v -0.020000 3.500000 1.900000
v 0.079980 3.500000 1.998000
v -0.119980 3.500000 2.002000
v -0.109980 3.500000 2.502000
v 0.089980 3.500000 2.498000
v -0.109820 3.500000 2.494011
v 0.089820 3.500000 2.505989
v 0.119820 3.500000 2.005989
v -0.079820 3.500000 1.994011
v 0.020000 3.500000 1.900000
v 0.020000 3.500000 2.100000
v 3.000000 3.500000 2.100000
v 3.000000 3.500000 1.900000
v 2.900000 3.500000 2.000000
v 3.100000 3.500000 2.000000
v 3.100000 3.500000 -2.000000
v 2.900000 3.500000 -2.000000
vn -0.0000 -1.0000 -0.0000
vn -0.0000 1.0000 -0.0000
vn -1.0000 -0.0000 -0.0000
vn -0.9998 -0.0000 0.0200
vn -0.0000 -0.0000 1.0000
vn 0.0200 -0.0000 0.9998
vn -0.0000 -0.0000 -1.0000
vn 1.0000 -0.0000 -0.0000
vn -0.9982 -0.0000 -0.0599
vn -0.0599 -0.0000 0.9982
vn 0.9982 -0.0000 0.0599
vn 0.0599 -0.0000 -0.9982
vn 0.9998 -0.0000 -0.0200
vn -0.0200 -0.0000 -0.9998
s 0
usemtl WallMaterial
f 1//1 4//1 3//1 2//1
f 5//1 8//1 7//1 6//1
f 9//1 12//1 11//1 10//1
f 13//1 16//1 15//1 14//1
f 17//1 20//1 19//1 18//1
f 21//1 24//1 23//1 22//1
f 25//2 26//2 27//2 28//2
f 29//2 30//2 31//2 32//2
f 33//2 34//2 35//2 36//2
f 37//2 38//2 39//2 40//2
f 41//2 42//2 43//2 44//2
f 45//2 46//2 47//2 48//2
f 2//3 3//3 27//3 26//3
f 17//3 18//3 42//3 41//3
f 10//4 11//4 35//4 34//4
f 3//5 4//5 28//5 27//5
f 18//5 19//5 43//5 42//5
f 11//6 12//6 36//6 35//6
f 8//7 5//7 29//7 32//7
f 19//8 20//8 44//8 43//8
f 16//9 13//9 37//9 40//9
f 5//3 6//3 30//3 29//3
f 24//3 21//3 45//3 48//3
f 13//10 14//10 38//10 37//10
f 6//5 7//5 31//5 30//5
f 21//5 22//5 46//5 45//5
f 14//11 15//11 39//11 38//11
f 7//8 8//8 32//8 31//8
f 22//8 23//8 47//8 46//8
f 4//8 1//8 25//8 28//8
f 15//12 16//12 40//12 39//12
f 12//13 9//13 33//13 36//13
f 23//7 24//7 48//7 47//7
f 1//7 2//7 26//7 25//7
f 20//7 17//7 41//7 44//7
f 9//14 10//14 34//14 33//14
o Floor
v -4.000000 0.000000 3.500000
v 4.000000 0.000000 3.500000
v -4.000000 0.000000 -3.000000
v 4.000000 0.000000 -3.000000
vn -0.0000 1.0000 -0.0000
vt 0.000000 0.000000
vt 1.000000 0.000000
vt 1.000000 1.000000
vt 0.000000 1.000000
s 0
usemtl FloorMaterial
f 49/1/15 50/2/15 52/3/15 51/4/15
o Ceiling
v -4.000000 3.500000 3.500000
v 4.000000 3.500000 3.500000
v -4.000000 3.500000 -3.000000
v 4.000000 3.500000 -3.000000
vn -0.0000 1.0000 -0.0000
vt 0.000000 0.000000
vt 1.000000 0.000000
vt 1.000000 1.000000
vt 0.000000 1.000000
s 0
usemtl CeilingMaterial
f 53/5/16 54/6/16 56/7/16 55/8/16
