# High-quality OBJ with extruded walls
# Generated from plan.json

v 1.160000 -3.350000 0.000000
v 1.360000 -3.350000 0.000000
v 1.360000 -3.450000 0.000000
v 1.160000 -3.450000 0.000000
v 1.160000 -3.350000 3.500000
v 1.360000 -3.350000 3.500000
v 1.360000 -3.450000 3.500000
v 1.160000 -3.450000 3.500000
v 1.260000 -3.550000 0.000000
v 1.260000 -3.350000 0.000000
v 2.990000 -3.350000 0.000000
v 2.990000 -3.550000 0.000000
v 1.260000 -3.550000 3.500000
v 1.260000 -3.350000 3.500000
v 2.990000 -3.350000 3.500000
v 2.990000 -3.550000 3.500000
v 3.090000 -3.450000 0.000000
v 2.890000 -3.450000 0.000000
v 2.890000 -3.350000 0.000000
v 3.090000 -3.350000 0.000000
v 3.090000 -3.450000 3.500000
v 2.890000 -3.450000 3.500000
v 2.890000 -3.350000 3.500000
v 3.090000 -3.350000 3.500000
v 2.990000 -3.250000 0.000000
v 2.990000 -3.450000 0.000000
v 1.260000 -3.450000 0.000000
v 1.260000 -3.250000 0.000000
v 2.990000 -3.250000 3.500000
v 2.990000 -3.450000 3.500000
v 1.260000 -3.450000 3.500000
v 1.260000 -3.250000 3.500000
v -3.840000 -3.350000 0.000000
v -3.640000 -3.350000 0.000000
v -3.640000 -3.450000 0.000000
v -3.840000 -3.450000 0.000000
v -3.840000 -3.350000 3.500000
v -3.640000 -3.350000 3.500000
v -3.640000 -3.450000 3.500000
v -3.840000 -3.450000 3.500000
v -3.740000 -3.550000 0.000000
v -3.740000 -3.350000 0.000000
v -2.010000 -3.350000 0.000000
v -2.010000 -3.550000 0.000000
v -3.740000 -3.550000 3.500000
v -3.740000 -3.350000 3.500000
v -2.010000 -3.350000 3.500000
v -2.010000 -3.550000 3.500000
v -1.910000 -3.450000 0.000000
v -2.110000 -3.450000 0.000000
v -2.110000 -3.350000 0.000000
v -1.910000 -3.350000 0.000000
v -1.910000 -3.450000 3.500000
v -2.110000 -3.450000 3.500000
v -2.110000 -3.350000 3.500000
v -1.910000 -3.350000 3.500000
v -2.010000 -3.250000 0.000000
v -2.010000 -3.450000 0.000000
v -3.740000 -3.450000 0.000000
v -3.740000 -3.250000 0.000000
v -2.010000 -3.250000 3.500000
v -2.010000 -3.450000 3.500000
v -3.740000 -3.450000 3.500000
v -3.740000 -3.250000 3.500000
v 2.900000 -3.250000 0.000000
v 3.100000 -3.250000 0.000000
v 3.100000 -3.330000 0.000000
v 2.900000 -3.330000 0.000000
v 2.900000 -3.250000 3.500000
v 3.100000 -3.250000 3.500000
v 3.100000 -3.330000 3.500000
v 2.900000 -3.330000 3.500000
v 3.031623 -3.424868 0.000000
v 2.968377 -3.235132 0.000000
v 2.998377 -3.225132 0.000000
v 3.061623 -3.414868 0.000000
v 3.031623 -3.424868 3.500000
v 2.968377 -3.235132 3.500000
v 2.998377 -3.225132 3.500000
v 3.061623 -3.414868 3.500000
v 3.127014 -3.344254 0.000000
v 2.932986 -3.295746 0.000000
v 2.942986 -3.255746 0.000000
v 3.137014 -3.304254 0.000000
v 3.127014 -3.344254 3.500000
v 2.932986 -3.295746 3.500000
v 2.942986 -3.255746 3.500000
v 3.137014 -3.304254 3.500000
v 3.040000 -3.380000 0.000000
v 3.040000 -3.180000 0.000000
v 3.210000 -3.180000 0.000000
v 3.210000 -3.380000 0.000000
v 3.040000 -3.380000 3.500000
v 3.040000 -3.180000 3.500000
v 3.210000 -3.180000 3.500000
v 3.210000 -3.380000 3.500000
v 3.112986 -3.304254 0.000000
v 3.307014 -3.255746 0.000000
v 3.317014 -3.295746 0.000000
v 3.122986 -3.344254 0.000000
v 3.112986 -3.304254 3.500000
v 3.307014 -3.255746 3.500000
v 3.317014 -3.295746 3.500000
v 3.122986 -3.344254 3.500000
v 3.188377 -3.414868 0.000000
v 3.251623 -3.225132 0.000000
v 3.281623 -3.235132 0.000000
v 3.218377 -3.424868 0.000000
v 3.188377 -3.414868 3.500000
v 3.251623 -3.225132 3.500000
v 3.281623 -3.235132 3.500000
v 3.218377 -3.424868 3.500000
v 3.350000 -3.330000 0.000000
v 3.150000 -3.330000 0.000000
v 3.150000 -3.250000 0.000000
v 3.350000 -3.250000 0.000000
v 3.350000 -3.330000 3.500000
v 3.150000 -3.330000 3.500000
v 3.150000 -3.250000 3.500000
v 3.350000 -3.250000 3.500000
v 3.250000 -3.150000 0.000000
v 3.250000 -3.350000 0.000000
v 3.000000 -3.350000 0.000000
v 3.000000 -3.150000 0.000000
v 3.250000 -3.150000 3.500000
v 3.250000 -3.350000 3.500000
v 3.000000 -3.350000 3.500000
v 3.000000 -3.150000 3.500000
v 0.900000 -3.250000 0.000000
v 1.100000 -3.250000 0.000000
v 1.100000 -3.330000 0.000000
v 0.900000 -3.330000 0.000000
v 0.900000 -3.250000 3.500000
v 1.100000 -3.250000 3.500000
v 1.100000 -3.330000 3.500000
v 0.900000 -3.330000 3.500000
v 1.031623 -3.424868 0.000000
v 0.968377 -3.235132 0.000000
v 0.998377 -3.225132 0.000000
v 1.061623 -3.414868 0.000000
v 1.031623 -3.424868 3.500000
v 0.968377 -3.235132 3.500000
v 0.998377 -3.225132 3.500000
v 1.061623 -3.414868 3.500000
v 1.127014 -3.344254 0.000000
v 0.932986 -3.295746 0.000000
v 0.942986 -3.255746 0.000000
v 1.137014 -3.304254 0.000000
v 1.127014 -3.344254 3.500000
v 0.932986 -3.295746 3.500000
v 0.942986 -3.255746 3.500000
v 1.137014 -3.304254 3.500000
v 1.040000 -3.380000 0.000000
v 1.040000 -3.180000 0.000000
v 1.210000 -3.180000 0.000000
v 1.210000 -3.380000 0.000000
v 1.040000 -3.380000 3.500000
v 1.040000 -3.180000 3.500000
v 1.210000 -3.180000 3.500000
v 1.210000 -3.380000 3.500000
v 1.112986 -3.304254 0.000000
v 1.307014 -3.255746 0.000000
v 1.317014 -3.295746 0.000000
v 1.122986 -3.344254 0.000000
v 1.112986 -3.304254 3.500000
v 1.307014 -3.255746 3.500000
v 1.317014 -3.295746 3.500000
v 1.122986 -3.344254 3.500000
v 1.188377 -3.414868 0.000000
v 1.251623 -3.225132 0.000000
v 1.281623 -3.235132 0.000000
v 1.218377 -3.424868 0.000000
v 1.188377 -3.414868 3.500000
v 1.251623 -3.225132 3.500000
v 1.281623 -3.235132 3.500000
v 1.218377 -3.424868 3.500000
v 1.350000 -3.330000 0.000000
v 1.150000 -3.330000 0.000000
v 1.150000 -3.250000 0.000000
v 1.350000 -3.250000 0.000000
v 1.350000 -3.330000 3.500000
v 1.150000 -3.330000 3.500000
v 1.150000 -3.250000 3.500000
v 1.350000 -3.250000 3.500000
v 1.250000 -3.150000 0.000000
v 1.250000 -3.350000 0.000000
v 1.000000 -3.350000 0.000000
v 1.000000 -3.150000 0.000000
v 1.250000 -3.150000 3.500000
v 1.250000 -3.350000 3.500000
v 1.000000 -3.350000 3.500000
v 1.000000 -3.150000 3.500000
v -2.100000 -3.250000 0.000000
v -1.900000 -3.250000 0.000000
v -1.900000 -3.330000 0.000000
v -2.100000 -3.330000 0.000000
v -2.100000 -3.250000 3.500000
v -1.900000 -3.250000 3.500000
v -1.900000 -3.330000 3.500000
v -2.100000 -3.330000 3.500000
v -1.968377 -3.424868 0.000000
v -2.031623 -3.235132 0.000000
v -2.001623 -3.225132 0.000000
v -1.938377 -3.414868 0.000000
v -1.968377 -3.424868 3.500000
v -2.031623 -3.235132 3.500000
v -2.001623 -3.225132 3.500000
v -1.938377 -3.414868 3.500000
v -1.872986 -3.344254 0.000000
v -2.067014 -3.295746 0.000000
v -2.057014 -3.255746 0.000000
v -1.862986 -3.304254 0.000000
v -1.872986 -3.344254 3.500000
v -2.067014 -3.295746 3.500000
v -2.057014 -3.255746 3.500000
v -1.862986 -3.304254 3.500000
v -1.960000 -3.380000 0.000000
v -1.960000 -3.180000 0.000000
v -1.790000 -3.180000 0.000000
v -1.790000 -3.380000 0.000000
v -1.960000 -3.380000 3.500000
v -1.960000 -3.180000 3.500000
v -1.790000 -3.180000 3.500000
v -1.790000 -3.380000 3.500000
v -1.887014 -3.304254 0.000000
v -1.692986 -3.255746 0.000000
v -1.682986 -3.295746 0.000000
v -1.877014 -3.344254 0.000000
v -1.887014 -3.304254 3.500000
v -1.692986 -3.255746 3.500000
v -1.682986 -3.295746 3.500000
v -1.877014 -3.344254 3.500000
v -1.811623 -3.414868 0.000000
v -1.748377 -3.225132 0.000000
v -1.718377 -3.235132 0.000000
v -1.781623 -3.424868 0.000000
v -1.811623 -3.414868 3.500000
v -1.748377 -3.225132 3.500000
v -1.718377 -3.235132 3.500000
v -1.781623 -3.424868 3.500000
v -1.650000 -3.330000 0.000000
v -1.850000 -3.330000 0.000000
v -1.850000 -3.250000 0.000000
v -1.650000 -3.250000 0.000000
v -1.650000 -3.330000 3.500000
v -1.850000 -3.330000 3.500000
v -1.850000 -3.250000 3.500000
v -1.650000 -3.250000 3.500000
v -1.750000 -3.150000 0.000000
v -1.750000 -3.350000 0.000000
v -2.000000 -3.350000 0.000000
v -2.000000 -3.150000 0.000000
v -1.750000 -3.150000 3.500000
v -1.750000 -3.350000 3.500000
v -2.000000 -3.350000 3.500000
v -2.000000 -3.150000 3.500000
v -4.100000 -3.250000 0.000000
v -3.900000 -3.250000 0.000000
v -3.900000 -3.330000 0.000000
v -4.100000 -3.330000 0.000000
v -4.100000 -3.250000 3.500000
v -3.900000 -3.250000 3.500000
v -3.900000 -3.330000 3.500000
v -4.100000 -3.330000 3.500000
v -3.968377 -3.424868 0.000000
v -4.031623 -3.235132 0.000000
v -4.001623 -3.225132 0.000000
v -3.938377 -3.414868 0.000000
v -3.968377 -3.424868 3.500000
v -4.031623 -3.235132 3.500000
v -4.001623 -3.225132 3.500000
v -3.938377 -3.414868 3.500000
v -3.872986 -3.344254 0.000000
v -4.067014 -3.295746 0.000000
v -4.057014 -3.255746 0.000000
v -3.862986 -3.304254 0.000000
v -3.872986 -3.344254 3.500000
v -4.067014 -3.295746 3.500000
v -4.057014 -3.255746 3.500000
v -3.862986 -3.304254 3.500000
v -3.960000 -3.380000 0.000000
v -3.960000 -3.180000 0.000000
v -3.790000 -3.180000 0.000000
v -3.790000 -3.380000 0.000000
v -3.960000 -3.380000 3.500000
v -3.960000 -3.180000 3.500000
v -3.790000 -3.180000 3.500000
v -3.790000 -3.380000 3.500000
v -3.887014 -3.304254 0.000000
v -3.692986 -3.255746 0.000000
v -3.682986 -3.295746 0.000000
v -3.877014 -3.344254 0.000000
v -3.887014 -3.304254 3.500000
v -3.692986 -3.255746 3.500000
v -3.682986 -3.295746 3.500000
v -3.877014 -3.344254 3.500000
v -3.811623 -3.414868 0.000000
v -3.748377 -3.225132 0.000000
v -3.718377 -3.235132 0.000000
v -3.781623 -3.424868 0.000000
v -3.811623 -3.414868 3.500000
v -3.748377 -3.225132 3.500000
v -3.718377 -3.235132 3.500000
v -3.781623 -3.424868 3.500000
v -3.650000 -3.330000 0.000000
v -3.850000 -3.330000 0.000000
v -3.850000 -3.250000 0.000000
v -3.650000 -3.250000 0.000000
v -3.650000 -3.330000 3.500000
v -3.850000 -3.330000 3.500000
v -3.850000 -3.250000 3.500000
v -3.650000 -3.250000 3.500000
v -3.750000 -3.150000 0.000000
v -3.750000 -3.350000 0.000000
v -4.000000 -3.350000 0.000000
v -4.000000 -3.150000 0.000000
v -3.750000 -3.150000 3.500000
v -3.750000 -3.350000 3.500000
v -4.000000 -3.350000 3.500000
v -4.000000 -3.150000 3.500000
v 2.900000 3.330000 0.000000
v 3.100000 3.330000 0.000000
v 3.100000 3.250000 0.000000
v 2.900000 3.250000 0.000000
v 2.900000 3.330000 3.500000
v 3.100000 3.330000 3.500000
v 3.100000 3.250000 3.500000
v 2.900000 3.250000 3.500000
v 3.000000 3.150000 0.000000
v 3.000000 3.350000 0.000000
v 3.250000 3.350000 0.000000
v 3.250000 3.150000 0.000000
v 3.000000 3.150000 3.500000
v 3.000000 3.350000 3.500000
v 3.250000 3.350000 3.500000
v 3.250000 3.150000 3.500000
v 3.350000 3.250000 0.000000
v 3.150000 3.250000 0.000000
v 3.150000 3.330000 0.000000
v 3.350000 3.330000 0.000000
v 3.350000 3.250000 3.500000
v 3.150000 3.250000 3.500000
v 3.150000 3.330000 3.500000
v 3.350000 3.330000 3.500000
v 3.218377 3.424868 0.000000
v 3.281623 3.235132 0.000000
v 3.251623 3.225132 0.000000
v 3.188377 3.414868 0.000000
v 3.218377 3.424868 3.500000
v 3.281623 3.235132 3.500000
v 3.251623 3.225132 3.500000
v 3.188377 3.414868 3.500000
v 3.122986 3.344254 0.000000
v 3.317014 3.295746 0.000000
v 3.307014 3.255746 0.000000
v 3.112986 3.304254 0.000000
v 3.122986 3.344254 3.500000
v 3.317014 3.295746 3.500000
v 3.307014 3.255746 3.500000
v 3.112986 3.304254 3.500000
v 3.210000 3.380000 0.000000
v 3.210000 3.180000 0.000000
v 3.040000 3.180000 0.000000
v 3.040000 3.380000 0.000000
v 3.210000 3.380000 3.500000
v 3.210000 3.180000 3.500000
v 3.040000 3.180000 3.500000
v 3.040000 3.380000 3.500000
v 3.137014 3.304254 0.000000
v 2.942986 3.255746 0.000000
v 2.932986 3.295746 0.000000
v 3.127014 3.344254 0.000000
v 3.137014 3.304254 3.500000
v 2.942986 3.255746 3.500000
v 2.932986 3.295746 3.500000
v 3.127014 3.344254 3.500000
v 3.061623 3.414868 0.000000
v 2.998377 3.225132 0.000000
v 2.968377 3.235132 0.000000
v 3.031623 3.424868 0.000000
v 3.061623 3.414868 3.500000
v 2.998377 3.225132 3.500000
v 2.968377 3.235132 3.500000
v 3.031623 3.424868 3.500000
v 0.900000 3.330000 0.000000
v 1.100000 3.330000 0.000000
v 1.100000 3.250000 0.000000
v 0.900000 3.250000 0.000000
v 0.900000 3.330000 3.500000
v 1.100000 3.330000 3.500000
v 1.100000 3.250000 3.500000
v 0.900000 3.250000 3.500000
v 1.000000 3.150000 0.000000
v 1.000000 3.350000 0.000000
v 1.250000 3.350000 0.000000
v 1.250000 3.150000 0.000000
v 1.000000 3.150000 3.500000
v 1.000000 3.350000 3.500000
v 1.250000 3.350000 3.500000
v 1.250000 3.150000 3.500000
v 1.350000 3.250000 0.000000
v 1.150000 3.250000 0.000000
v 1.150000 3.330000 0.000000
v 1.350000 3.330000 0.000000
v 1.350000 3.250000 3.500000
v 1.150000 3.250000 3.500000
v 1.150000 3.330000 3.500000
v 1.350000 3.330000 3.500000
v 1.218377 3.424868 0.000000
v 1.281623 3.235132 0.000000
v 1.251623 3.225132 0.000000
v 1.188377 3.414868 0.000000
v 1.218377 3.424868 3.500000
v 1.281623 3.235132 3.500000
v 1.251623 3.225132 3.500000
v 1.188377 3.414868 3.500000
v 1.122986 3.344254 0.000000
v 1.317014 3.295746 0.000000
v 1.307014 3.255746 0.000000
v 1.112986 3.304254 0.000000
v 1.122986 3.344254 3.500000
v 1.317014 3.295746 3.500000
v 1.307014 3.255746 3.500000
v 1.112986 3.304254 3.500000
v 1.210000 3.380000 0.000000
v 1.210000 3.180000 0.000000
v 1.040000 3.180000 0.000000
v 1.040000 3.380000 0.000000
v 1.210000 3.380000 3.500000
v 1.210000 3.180000 3.500000
v 1.040000 3.180000 3.500000
v 1.040000 3.380000 3.500000
v 1.137014 3.304254 0.000000
v 0.942986 3.255746 0.000000
v 0.932986 3.295746 0.000000
v 1.127014 3.344254 0.000000
v 1.137014 3.304254 3.500000
v 0.942986 3.255746 3.500000
v 0.932986 3.295746 3.500000
v 1.127014 3.344254 3.500000
v 1.061623 3.414868 0.000000
v 0.998377 3.225132 0.000000
v 0.968377 3.235132 0.000000
v 1.031623 3.424868 0.000000
v 1.061623 3.414868 3.500000
v 0.998377 3.225132 3.500000
v 0.968377 3.235132 3.500000
v 1.031623 3.424868 3.500000
v -2.100000 3.330000 0.000000
v -1.900000 3.330000 0.000000
v -1.900000 3.250000 0.000000
v -2.100000 3.250000 0.000000
v -2.100000 3.330000 3.500000
v -1.900000 3.330000 3.500000
v -1.900000 3.250000 3.500000
v -2.100000 3.250000 3.500000
v -2.000000 3.150000 0.000000
v -2.000000 3.350000 0.000000
v -1.750000 3.350000 0.000000
v -1.750000 3.150000 0.000000
v -2.000000 3.150000 3.500000
v -2.000000 3.350000 3.500000
v -1.750000 3.350000 3.500000
v -1.750000 3.150000 3.500000
v -1.650000 3.250000 0.000000
v -1.850000 3.250000 0.000000
v -1.850000 3.330000 0.000000
v -1.650000 3.330000 0.000000
v -1.650000 3.250000 3.500000
v -1.850000 3.250000 3.500000
v -1.850000 3.330000 3.500000
v -1.650000 3.330000 3.500000
v -1.781623 3.424868 0.000000
v -1.718377 3.235132 0.000000
v -1.748377 3.225132 0.000000
v -1.811623 3.414868 0.000000
v -1.781623 3.424868 3.500000
v -1.718377 3.235132 3.500000
v -1.748377 3.225132 3.500000
v -1.811623 3.414868 3.500000
v -1.877014 3.344254 0.000000
v -1.682986 3.295746 0.000000
v -1.692986 3.255746 0.000000
v -1.887014 3.304254 0.000000
v -1.877014 3.344254 3.500000
v -1.682986 3.295746 3.500000
v -1.692986 3.255746 3.500000
v -1.887014 3.304254 3.500000
v -1.790000 3.380000 0.000000
v -1.790000 3.180000 0.000000
v -1.960000 3.180000 0.000000
v -1.960000 3.380000 0.000000
v -1.790000 3.380000 3.500000
v -1.790000 3.180000 3.500000
v -1.960000 3.180000 3.500000
v -1.960000 3.380000 3.500000
v -1.862986 3.304254 0.000000
v -2.057014 3.255746 0.000000
v -2.067014 3.295746 0.000000
v -1.872986 3.344254 0.000000
v -1.862986 3.304254 3.500000
v -2.057014 3.255746 3.500000
v -2.067014 3.295746 3.500000
v -1.872986 3.344254 3.500000
v -1.938377 3.414868 0.000000
v -2.001623 3.225132 0.000000
v -2.031623 3.235132 0.000000
v -1.968377 3.424868 0.000000
v -1.938377 3.414868 3.500000
v -2.001623 3.225132 3.500000
v -2.031623 3.235132 3.500000
v -1.968377 3.424868 3.500000
v -4.100000 3.330000 0.000000
v -3.900000 3.330000 0.000000
v -3.900000 3.250000 0.000000
v -4.100000 3.250000 0.000000
v -4.100000 3.330000 3.500000
v -3.900000 3.330000 3.500000
v -3.900000 3.250000 3.500000
v -4.100000 3.250000 3.500000
v -4.000000 3.150000 0.000000
v -4.000000 3.350000 0.000000
v -3.750000 3.350000 0.000000
v -3.750000 3.150000 0.000000
v -4.000000 3.150000 3.500000
v -4.000000 3.350000 3.500000
v -3.750000 3.350000 3.500000
v -3.750000 3.150000 3.500000
v -3.650000 3.250000 0.000000
v -3.850000 3.250000 0.000000
v -3.850000 3.330000 0.000000
v -3.650000 3.330000 0.000000
v -3.650000 3.250000 3.500000
v -3.850000 3.250000 3.500000
v -3.850000 3.330000 3.500000
v -3.650000 3.330000 3.500000
v -3.781623 3.424868 0.000000
v -3.718377 3.235132 0.000000
v -3.748377 3.225132 0.000000
v -3.811623 3.414868 0.000000
v -3.781623 3.424868 3.500000
v -3.718377 3.235132 3.500000
v -3.748377 3.225132 3.500000
v -3.811623 3.414868 3.500000
v -3.877014 3.344254 0.000000
v -3.682986 3.295746 0.000000
v -3.692986 3.255746 0.000000
v -3.887014 3.304254 0.000000
v -3.877014 3.344254 3.500000
v -3.682986 3.295746 3.500000
v -3.692986 3.255746 3.500000
v -3.887014 3.304254 3.500000
v -3.790000 3.380000 0.000000
v -3.790000 3.180000 0.000000
v -3.960000 3.180000 0.000000
v -3.960000 3.380000 0.000000
v -3.790000 3.380000 3.500000
v -3.790000 3.180000 3.500000
v -3.960000 3.180000 3.500000
v -3.960000 3.380000 3.500000
v -3.862986 3.304254 0.000000
v -4.057014 3.255746 0.000000
v -4.067014 3.295746 0.000000
v -3.872986 3.344254 0.000000
v -3.862986 3.304254 3.500000
v -4.057014 3.255746 3.500000
v -4.067014 3.295746 3.500000
v -3.872986 3.344254 3.500000
v -3.938377 3.414868 0.000000
v -4.001623 3.225132 0.000000
v -4.031623 3.235132 0.000000
v -3.968377 3.424868 0.000000
v -3.938377 3.414868 3.500000
v -4.001623 3.225132 3.500000
v -4.031623 3.235132 3.500000
v -3.968377 3.424868 3.500000
v 3.249959 3.350505 0.000000
v 3.270041 3.549495 0.000000
v 4.360041 3.439495 0.000000
v 4.339959 3.240505 0.000000
v 3.249959 3.350505 3.500000
v 3.270041 3.549495 3.500000
v 4.360041 3.439495 3.500000
v 4.339959 3.240505 3.500000
v 4.250000 3.340000 0.000000
v 4.450000 3.340000 0.000000
v 4.450000 0.060000 0.000000
v 4.250000 0.060000 0.000000
v 4.250000 3.340000 3.500000
v 4.450000 3.340000 3.500000
v 4.450000 0.060000 3.500000
v 4.250000 0.060000 3.500000
v 4.346946 0.159953 0.000000
v 4.353054 -0.039953 0.000000
v 0.753054 -0.149953 0.000000
v 0.746946 0.049953 0.000000
v 4.346946 0.159953 3.500000
v 4.353054 -0.039953 3.500000
v 0.753054 -0.149953 3.500000
v 0.746946 0.049953 3.500000
v 0.750000 -0.150000 0.000000
v 0.750000 0.050000 0.000000
v 4.340000 0.050000 0.000000
v 4.340000 -0.150000 0.000000
v 0.750000 -0.150000 3.500000
v 0.750000 0.050000 3.500000
v 4.340000 0.050000 3.500000
v 4.340000 -0.150000 3.500000
v 4.240000 -0.050304 0.000000
v 4.440000 -0.049696 0.000000
v 4.450000 -3.339696 0.000000
v 4.250000 -3.340304 0.000000
v 4.240000 -0.050304 3.500000
v 4.440000 -0.049696 3.500000
v 4.450000 -3.339696 3.500000
v 4.250000 -3.340304 3.500000
v 4.339959 -3.240505 0.000000
v 4.360041 -3.439495 0.000000
v 3.270041 -3.549495 0.000000
v 3.249959 -3.350505 0.000000
v 4.339959 -3.240505 3.500000
v 4.360041 -3.439495 3.500000
v 3.270041 -3.549495 3.500000
v 3.249959 -3.350505 3.500000
v 3.260000 -3.550000 0.000000
v 3.260000 -3.350000 0.000000
v 4.400000 -3.350000 0.000000
v 4.400000 -3.550000 0.000000
v 3.260000 -3.550000 3.500000
v 3.260000 -3.350000 3.500000
v 4.400000 -3.350000 3.500000
v 4.400000 -3.550000 3.500000
v 4.499997 -3.450730 0.000000
v 4.300003 -3.449270 0.000000
v 4.350003 3.400730 0.000000
v 4.549997 3.399270 0.000000
v 4.499997 -3.450730 3.500000
v 4.300003 -3.449270 3.500000
v 4.350003 3.400730 3.500000
v 4.549997 3.399270 3.500000
v 4.454198 3.499912 0.000000
v 4.445802 3.300088 0.000000
v 3.255802 3.350088 0.000000
v 3.264198 3.549912 0.000000
v 4.454198 3.499912 3.500000
v 4.445802 3.300088 3.500000
v 3.255802 3.350088 3.500000
v 3.264198 3.549912 3.500000
v 1.160000 3.450000 0.000000
v 1.360000 3.450000 0.000000
v 1.360000 3.350000 0.000000
v 1.160000 3.350000 0.000000
v 1.160000 3.450000 3.500000
v 1.360000 3.450000 3.500000
v 1.360000 3.350000 3.500000
v 1.160000 3.350000 3.500000
v 1.260000 3.250000 0.000000
v 1.260000 3.450000 0.000000
v 2.990000 3.450000 0.000000
v 2.990000 3.250000 0.000000
v 1.260000 3.250000 3.500000
v 1.260000 3.450000 3.500000
v 2.990000 3.450000 3.500000
v 2.990000 3.250000 3.500000
v 3.090000 3.350000 0.000000
v 2.890000 3.350000 0.000000
v 2.890000 3.450000 0.000000
v 3.090000 3.450000 0.000000
v 3.090000 3.350000 3.500000
v 2.890000 3.350000 3.500000
v 2.890000 3.450000 3.500000
v 3.090000 3.450000 3.500000
v 2.990000 3.550000 0.000000
v 2.990000 3.350000 0.000000
v 1.260000 3.350000 0.000000
v 1.260000 3.550000 0.000000
v 2.990000 3.550000 3.500000
v 2.990000 3.350000 3.500000
v 1.260000 3.350000 3.500000
v 1.260000 3.550000 3.500000
v -1.746495 3.350211 0.000000
v -1.733505 3.549789 0.000000
v -0.043505 3.439789 0.000000
v -0.056495 3.240211 0.000000
v -1.746495 3.350211 3.500000
v -1.733505 3.549789 3.500000
v -0.043505 3.439789 3.500000
v -0.056495 3.240211 3.500000
v -0.150000 3.340000 0.000000
v 0.050000 3.340000 0.000000
v 0.050000 -3.340000 0.000000
v -0.150000 -3.340000 0.000000
v -0.150000 3.340000 3.500000
v 0.050000 3.340000 3.500000
v 0.050000 -3.340000 3.500000
v -0.150000 -3.340000 3.500000
v -0.056495 -3.240211 0.000000
v -0.043505 -3.439789 0.000000
v -1.733505 -3.549789 0.000000
v -1.746495 -3.350211 0.000000
v -0.056495 -3.240211 3.500000
v -0.043505 -3.439789 3.500000
v -1.733505 -3.549789 3.500000
v -1.746495 -3.350211 3.500000
v -1.740000 -3.550000 0.000000
v -1.740000 -3.350000 0.000000
v 0.990000 -3.350000 0.000000
v 0.990000 -3.550000 0.000000
v -1.740000 -3.550000 3.500000
v -1.740000 -3.350000 3.500000
v 0.990000 -3.350000 3.500000
v 0.990000 -3.550000 3.500000
v 1.001623 -3.350678 0.000000
v 0.978377 -3.549322 0.000000
v 0.038377 -3.439322 0.000000
v 0.061623 -3.240678 0.000000
v 1.001623 -3.350678 3.500000
v 0.978377 -3.549322 3.500000
v 0.038377 -3.439322 3.500000
v 0.061623 -3.240678 3.500000
v 0.150000 -3.340000 0.000000
v -0.050000 -3.340000 0.000000
v -0.050000 3.340000 0.000000
v 0.150000 3.340000 0.000000
v 0.150000 -3.340000 3.500000
v -0.050000 -3.340000 3.500000
v -0.050000 3.340000 3.500000
v 0.150000 3.340000 3.500000
v 0.061623 3.240678 0.000000
v 0.038377 3.439322 0.000000
v 0.978377 3.549322 0.000000
v 1.001623 3.350678 0.000000
v 0.061623 3.240678 3.500000
v 0.038377 3.439322 3.500000
v 0.978377 3.549322 3.500000
v 1.001623 3.350678 3.500000
v 0.990000 3.550000 0.000000
v 0.990000 3.350000 0.000000
v -1.740000 3.350000 0.000000
v -1.740000 3.550000 0.000000
v 0.990000 3.550000 3.500000
v 0.990000 3.350000 3.500000
v -1.740000 3.350000 3.500000
v -1.740000 3.550000 3.500000
v -3.840000 3.450000 0.000000
v -3.640000 3.450000 0.000000
v -3.640000 3.350000 0.000000
v -3.840000 3.350000 0.000000
v -3.840000 3.450000 3.500000
v -3.640000 3.450000 3.500000
v -3.640000 3.350000 3.500000
v -3.840000 3.350000 3.500000
v -3.740000 3.250000 0.000000
v -3.740000 3.450000 0.000000
v -2.010000 3.450000 0.000000
v -2.010000 3.250000 0.000000
v -3.740000 3.250000 3.500000
v -3.740000 3.450000 3.500000
v -2.010000 3.450000 3.500000
v -2.010000 3.250000 3.500000
v -1.910000 3.350000 0.000000
v -2.110000 3.350000 0.000000
v -2.110000 3.450000 0.000000
v -1.910000 3.450000 0.000000
v -1.910000 3.350000 3.500000
v -2.110000 3.350000 3.500000
v -2.110000 3.450000 3.500000
v -1.910000 3.450000 3.500000
v -2.010000 3.550000 0.000000
v -2.010000 3.350000 0.000000
v -3.740000 3.350000 0.000000
v -3.740000 3.550000 0.000000
v -2.010000 3.550000 3.500000
v -2.010000 3.350000 3.500000
v -3.740000 3.350000 3.500000
v -3.740000 3.550000 3.500000
v -4.499841 3.444357 0.000000
v -4.300159 3.455643 0.000000
v -3.910159 -3.444357 0.000000
v -4.109841 -3.455643 0.000000
v -4.499841 3.444357 3.500000
v -4.300159 3.455643 3.500000
v -3.910159 -3.444357 3.500000
v -4.109841 -3.455643 3.500000
v -3.910499 -3.440021 0.000000
v -4.109501 -3.459979 0.000000
v -4.449501 -0.069979 0.000000
v -4.250499 -0.050021 0.000000
v -3.910499 -3.440021 3.500000
v -4.109501 -3.459979 3.500000
v -4.449501 -0.069979 3.500000
v -4.250499 -0.050021 3.500000
v -4.346946 -0.159953 0.000000
v -4.353054 0.039953 0.000000
v -0.753054 0.149953 0.000000
v -0.746946 -0.049953 0.000000
v -4.346946 -0.159953 3.500000
v -4.353054 0.039953 3.500000
v -0.753054 0.149953 3.500000
v -0.746946 -0.049953 3.500000
v -0.750000 0.150000 0.000000
v -0.750000 -0.050000 0.000000
v -4.340000 -0.050000 0.000000
v -4.340000 0.150000 0.000000
v -0.750000 0.150000 3.500000
v -0.750000 -0.050000 3.500000
v -4.340000 -0.050000 3.500000
v -4.340000 0.150000 3.500000
v -4.240016 0.051764 0.000000
v -4.439984 0.048236 0.000000
v -4.499984 3.448236 0.000000
v -4.300016 3.451764 0.000000
v -4.240016 0.051764 3.500000
v -4.439984 0.048236 3.500000
v -4.499984 3.448236 3.500000
v -4.300016 3.451764 3.500000

vn 1.000000 0.000000 0.000000
vn -1.000000 -0.000000 0.000000
vn 0.000000 0.000000 -1.000000
vn 0.000000 0.000000 1.000000
vn 0.000000 -1.000000 0.000000
vn -0.000000 1.000000 0.000000
vn -0.000000 1.000000 0.000000
vn 0.000000 -1.000000 0.000000
vn 0.000000 0.000000 -1.000000
vn 0.000000 0.000000 1.000000
vn 1.000000 0.000000 0.000000
vn -1.000000 -0.000000 0.000000
vn -1.000000 0.000000 0.000000
vn 1.000000 -0.000000 0.000000
vn 0.000000 0.000000 -1.000000
vn 0.000000 0.000000 1.000000
vn 0.000000 1.000000 0.000000
vn -0.000000 -1.000000 0.000000
vn -0.000000 -1.000000 0.000000
vn 0.000000 1.000000 0.000000
vn 0.000000 0.000000 -1.000000
vn 0.000000 0.000000 1.000000
vn -1.000000 0.000000 0.000000
vn 1.000000 -0.000000 0.000000
vn 1.000000 0.000000 0.000000
vn -1.000000 -0.000000 0.000000
vn 0.000000 0.000000 -1.000000
vn 0.000000 0.000000 1.000000
vn 0.000000 -1.000000 0.000000
vn -0.000000 1.000000 0.000000
vn -0.000000 1.000000 0.000000
vn 0.000000 -1.000000 0.000000
vn 0.000000 0.000000 -1.000000
vn 0.000000 0.000000 1.000000
vn 1.000000 0.000000 0.000000
vn -1.000000 -0.000000 0.000000
vn -1.000000 0.000000 0.000000
vn 1.000000 -0.000000 0.000000
vn 0.000000 0.000000 -1.000000
vn 0.000000 0.000000 1.000000
vn 0.000000 1.000000 0.000000
vn -0.000000 -1.000000 0.000000
vn -0.000000 -1.000000 0.000000
vn 0.000000 1.000000 0.000000
vn 0.000000 0.000000 -1.000000
vn 0.000000 0.000000 1.000000
vn -1.000000 0.000000 0.000000
vn 1.000000 -0.000000 0.000000
vn 1.000000 0.000000 0.000000
vn -1.000000 -0.000000 0.000000
vn 0.000000 0.000000 -1.000000
vn 0.000000 0.000000 1.000000
vn 0.000000 -1.000000 0.000000
vn -0.000000 1.000000 0.000000
vn -0.316228 0.948683 0.000000
vn 0.316228 -0.948683 0.000000
vn 0.000000 0.000000 -1.000000
vn 0.000000 0.000000 1.000000
vn 0.948683 0.316228 0.000000
vn -0.948683 -0.316228 0.000000
vn -0.970143 0.242536 0.000000
vn 0.970143 -0.242536 0.000000
vn 0.000000 0.000000 -1.000000
vn 0.000000 0.000000 1.000000
vn 0.242536 0.970143 0.000000
vn -0.242536 -0.970143 0.000000
vn -0.000000 1.000000 0.000000
vn 0.000000 -1.000000 0.000000
vn 0.000000 0.000000 -1.000000
vn 0.000000 0.000000 1.000000
vn 1.000000 0.000000 0.000000
vn -1.000000 -0.000000 0.000000
vn 0.970143 0.242536 0.000000
vn -0.970143 -0.242536 0.000000
vn 0.000000 0.000000 -1.000000
vn 0.000000 0.000000 1.000000
vn 0.242536 -0.970143 0.000000
vn -0.242536 0.970143 0.000000
vn 0.316228 0.948683 0.000000
vn -0.316228 -0.948683 0.000000
vn 0.000000 0.000000 -1.000000
vn 0.000000 0.000000 1.000000
vn 0.948683 -0.316228 0.000000
vn -0.948683 0.316228 0.000000
vn -1.000000 0.000000 0.000000
vn 1.000000 -0.000000 0.000000
vn 0.000000 0.000000 -1.000000
vn 0.000000 0.000000 1.000000
vn 0.000000 1.000000 0.000000
vn -0.000000 -1.000000 0.000000
vn -0.000000 -1.000000 0.000000
vn 0.000000 1.000000 0.000000
vn 0.000000 0.000000 -1.000000
vn 0.000000 0.000000 1.000000
vn -1.000000 0.000000 0.000000
vn 1.000000 -0.000000 0.000000
vn 1.000000 0.000000 0.000000
vn -1.000000 -0.000000 0.000000
vn 0.000000 0.000000 -1.000000
vn 0.000000 0.000000 1.000000
vn 0.000000 -1.000000 0.000000
vn -0.000000 1.000000 0.000000
vn -0.316228 0.948683 0.000000
vn 0.316228 -0.948683 0.000000
vn 0.000000 0.000000 -1.000000
vn 0.000000 0.000000 1.000000
vn 0.948683 0.316228 0.000000
vn -0.948683 -0.316228 0.000000
vn -0.970143 0.242536 0.000000
vn 0.970143 -0.242536 0.000000
vn 0.000000 0.000000 -1.000000
vn 0.000000 0.000000 1.000000
vn 0.242536 0.970143 0.000000
vn -0.242536 -0.970143 0.000000
vn -0.000000 1.000000 0.000000
vn 0.000000 -1.000000 0.000000
vn 0.000000 0.000000 -1.000000
vn 0.000000 0.000000 1.000000
vn 1.000000 0.000000 0.000000
vn -1.000000 -0.000000 0.000000
vn 0.970143 0.242536 0.000000
vn -0.970143 -0.242536 0.000000
vn 0.000000 0.000000 -1.000000
vn 0.000000 0.000000 1.000000
vn 0.242536 -0.970143 0.000000
vn -0.242536 0.970143 0.000000
vn 0.316228 0.948683 0.000000
vn -0.316228 -0.948683 0.000000
vn 0.000000 0.000000 -1.000000
vn 0.000000 0.000000 1.000000
vn 0.948683 -0.316228 0.000000
vn -0.948683 0.316228 0.000000
vn -1.000000 0.000000 0.000000
vn 1.000000 -0.000000 0.000000
vn 0.000000 0.000000 -1.000000
vn 0.000000 0.000000 1.000000
vn 0.000000 1.000000 0.000000
vn -0.000000 -1.000000 0.000000
vn -0.000000 -1.000000 0.000000
vn 0.000000 1.000000 0.000000
vn 0.000000 0.000000 -1.000000
vn 0.000000 0.000000 1.000000
vn -1.000000 0.000000 0.000000
vn 1.000000 -0.000000 0.000000
vn 1.000000 0.000000 0.000000
vn -1.000000 -0.000000 0.000000
vn 0.000000 0.000000 -1.000000
vn 0.000000 0.000000 1.000000
vn 0.000000 -1.000000 0.000000
vn -0.000000 1.000000 0.000000
vn -0.316228 0.948683 0.000000
vn 0.316228 -0.948683 0.000000
vn 0.000000 0.000000 -1.000000
vn 0.000000 0.000000 1.000000
vn 0.948683 0.316228 0.000000
vn -0.948683 -0.316228 0.000000
vn -0.970143 0.242536 0.000000
vn 0.970143 -0.242536 0.000000
vn 0.000000 0.000000 -1.000000
vn 0.000000 0.000000 1.000000
vn 0.242536 0.970143 0.000000
vn -0.242536 -0.970143 0.000000
vn -0.000000 1.000000 0.000000
vn 0.000000 -1.000000 0.000000
vn 0.000000 0.000000 -1.000000
vn 0.000000 0.000000 1.000000
vn 1.000000 0.000000 0.000000
vn -1.000000 -0.000000 0.000000
vn 0.970143 0.242536 0.000000
vn -0.970143 -0.242536 0.000000
vn 0.000000 0.000000 -1.000000
vn 0.000000 0.000000 1.000000
vn 0.242536 -0.970143 0.000000
vn -0.242536 0.970143 0.000000
vn 0.316228 0.948683 0.000000
vn -0.316228 -0.948683 0.000000
vn 0.000000 0.000000 -1.000000
vn 0.000000 0.000000 1.000000
vn 0.948683 -0.316228 0.000000
vn -0.948683 0.316228 0.000000
vn -1.000000 0.000000 0.000000
vn 1.000000 -0.000000 0.000000
vn 0.000000 0.000000 -1.000000
vn 0.000000 0.000000 1.000000
vn 0.000000 1.000000 0.000000
vn -0.000000 -1.000000 0.000000
vn -0.000000 -1.000000 0.000000
vn 0.000000 1.000000 0.000000
vn 0.000000 0.000000 -1.000000
vn 0.000000 0.000000 1.000000
vn -1.000000 0.000000 0.000000
vn 1.000000 -0.000000 0.000000
vn 1.000000 0.000000 0.000000
vn -1.000000 -0.000000 0.000000
vn 0.000000 0.000000 -1.000000
vn 0.000000 0.000000 1.000000
vn 0.000000 -1.000000 0.000000
vn -0.000000 1.000000 0.000000
vn -0.316228 0.948683 0.000000
vn 0.316228 -0.948683 0.000000
vn 0.000000 0.000000 -1.000000
vn 0.000000 0.000000 1.000000
vn 0.948683 0.316228 0.000000
vn -0.948683 -0.316228 0.000000
vn -0.970143 0.242536 0.000000
vn 0.970143 -0.242536 0.000000
vn 0.000000 0.000000 -1.000000
vn 0.000000 0.000000 1.000000
vn 0.242536 0.970143 0.000000
vn -0.242536 -0.970143 0.000000
vn -0.000000 1.000000 0.000000
vn 0.000000 -1.000000 0.000000
vn 0.000000 0.000000 -1.000000
vn 0.000000 0.000000 1.000000
vn 1.000000 0.000000 0.000000
vn -1.000000 -0.000000 0.000000
vn 0.970143 0.242536 0.000000
vn -0.970143 -0.242536 0.000000
vn 0.000000 0.000000 -1.000000
vn 0.000000 0.000000 1.000000
vn 0.242536 -0.970143 0.000000
vn -0.242536 0.970143 0.000000
vn 0.316228 0.948683 0.000000
vn -0.316228 -0.948683 0.000000
vn 0.000000 0.000000 -1.000000
vn 0.000000 0.000000 1.000000
vn 0.948683 -0.316228 0.000000
vn -0.948683 0.316228 0.000000
vn -1.000000 0.000000 0.000000
vn 1.000000 -0.000000 0.000000
vn 0.000000 0.000000 -1.000000
vn 0.000000 0.000000 1.000000
vn 0.000000 1.000000 0.000000
vn -0.000000 -1.000000 0.000000
vn -0.000000 -1.000000 0.000000
vn 0.000000 1.000000 0.000000
vn 0.000000 0.000000 -1.000000
vn 0.000000 0.000000 1.000000
vn -1.000000 0.000000 0.000000
vn 1.000000 -0.000000 0.000000
vn 1.000000 0.000000 0.000000
vn -1.000000 -0.000000 0.000000
vn 0.000000 0.000000 -1.000000
vn 0.000000 0.000000 1.000000
vn 0.000000 -1.000000 0.000000
vn -0.000000 1.000000 0.000000
vn -0.000000 1.000000 0.000000
vn 0.000000 -1.000000 0.000000
vn 0.000000 0.000000 -1.000000
vn 0.000000 0.000000 1.000000
vn 1.000000 0.000000 0.000000
vn -1.000000 -0.000000 0.000000
vn -1.000000 0.000000 0.000000
vn 1.000000 -0.000000 0.000000
vn 0.000000 0.000000 -1.000000
vn 0.000000 0.000000 1.000000
vn 0.000000 1.000000 0.000000
vn -0.000000 -1.000000 0.000000
vn 0.316228 -0.948683 0.000000
vn -0.316228 0.948683 0.000000
vn 0.000000 0.000000 -1.000000
vn 0.000000 0.000000 1.000000
vn -0.948683 -0.316228 0.000000
vn 0.948683 0.316228 0.000000
vn 0.970143 -0.242536 0.000000
vn -0.970143 0.242536 0.000000
vn 0.000000 0.000000 -1.000000
vn 0.000000 0.000000 1.000000
vn -0.242536 -0.970143 0.000000
vn 0.242536 0.970143 0.000000
vn -0.000000 -1.000000 0.000000
vn 0.000000 1.000000 0.000000
vn 0.000000 0.000000 -1.000000
vn 0.000000 0.000000 1.000000
vn -1.000000 0.000000 0.000000
vn 1.000000 -0.000000 0.000000
vn -0.970143 -0.242536 0.000000
vn 0.970143 0.242536 0.000000
vn 0.000000 0.000000 -1.000000
vn 0.000000 0.000000 1.000000
vn -0.242536 0.970143 0.000000
vn 0.242536 -0.970143 0.000000
vn -0.316228 -0.948683 0.000000
vn 0.316228 0.948683 0.000000
vn 0.000000 0.000000 -1.000000
vn 0.000000 0.000000 1.000000
vn -0.948683 0.316228 0.000000
vn 0.948683 -0.316228 0.000000
vn 1.000000 0.000000 0.000000
vn -1.000000 -0.000000 0.000000
vn 0.000000 0.000000 -1.000000
vn 0.000000 0.000000 1.000000
vn 0.000000 -1.000000 0.000000
vn -0.000000 1.000000 0.000000
vn -0.000000 1.000000 0.000000
vn 0.000000 -1.000000 0.000000
vn 0.000000 0.000000 -1.000000
vn 0.000000 0.000000 1.000000
vn 1.000000 0.000000 0.000000
vn -1.000000 -0.000000 0.000000
vn -1.000000 0.000000 0.000000
vn 1.000000 -0.000000 0.000000
vn 0.000000 0.000000 -1.000000
vn 0.000000 0.000000 1.000000
vn 0.000000 1.000000 0.000000
vn -0.000000 -1.000000 0.000000
vn 0.316228 -0.948683 0.000000
vn -0.316228 0.948683 0.000000
vn 0.000000 0.000000 -1.000000
vn 0.000000 0.000000 1.000000
vn -0.948683 -0.316228 0.000000
vn 0.948683 0.316228 0.000000
vn 0.970143 -0.242536 0.000000
vn -0.970143 0.242536 0.000000
vn 0.000000 0.000000 -1.000000
vn 0.000000 0.000000 1.000000
vn -0.242536 -0.970143 0.000000
vn 0.242536 0.970143 0.000000
vn -0.000000 -1.000000 0.000000
vn 0.000000 1.000000 0.000000
vn 0.000000 0.000000 -1.000000
vn 0.000000 0.000000 1.000000
vn -1.000000 0.000000 0.000000
vn 1.000000 -0.000000 0.000000
vn -0.970143 -0.242536 0.000000
vn 0.970143 0.242536 0.000000
vn 0.000000 0.000000 -1.000000
vn 0.000000 0.000000 1.000000
vn -0.242536 0.970143 0.000000
vn 0.242536 -0.970143 0.000000
vn -0.316228 -0.948683 0.000000
vn 0.316228 0.948683 0.000000
vn 0.000000 0.000000 -1.000000
vn 0.000000 0.000000 1.000000
vn -0.948683 0.316228 0.000000
vn 0.948683 -0.316228 0.000000
vn 1.000000 0.000000 0.000000
vn -1.000000 -0.000000 0.000000
vn 0.000000 0.000000 -1.000000
vn 0.000000 0.000000 1.000000
vn 0.000000 -1.000000 0.000000
vn -0.000000 1.000000 0.000000
vn -0.000000 1.000000 0.000000
vn 0.000000 -1.000000 0.000000
vn 0.000000 0.000000 -1.000000
vn 0.000000 0.000000 1.000000
vn 1.000000 0.000000 0.000000
vn -1.000000 -0.000000 0.000000
vn -1.000000 0.000000 0.000000
vn 1.000000 -0.000000 0.000000
vn 0.000000 0.000000 -1.000000
vn 0.000000 0.000000 1.000000
vn 0.000000 1.000000 0.000000
vn -0.000000 -1.000000 0.000000
vn 0.316228 -0.948683 0.000000
vn -0.316228 0.948683 0.000000
vn 0.000000 0.000000 -1.000000
vn 0.000000 0.000000 1.000000
vn -0.948683 -0.316228 0.000000
vn 0.948683 0.316228 0.000000
vn 0.970143 -0.242536 0.000000
vn -0.970143 0.242536 0.000000
vn 0.000000 0.000000 -1.000000
vn 0.000000 0.000000 1.000000
vn -0.242536 -0.970143 0.000000
vn 0.242536 0.970143 0.000000
vn -0.000000 -1.000000 0.000000
vn 0.000000 1.000000 0.000000
vn 0.000000 0.000000 -1.000000
vn 0.000000 0.000000 1.000000
vn -1.000000 0.000000 0.000000
vn 1.000000 -0.000000 0.000000
vn -0.970143 -0.242536 0.000000
vn 0.970143 0.242536 0.000000
vn 0.000000 0.000000 -1.000000
vn 0.000000 0.000000 1.000000
vn -0.242536 0.970143 0.000000
vn 0.242536 -0.970143 0.000000
vn -0.316228 -0.948683 0.000000
vn 0.316228 0.948683 0.000000
vn 0.000000 0.000000 -1.000000
vn 0.000000 0.000000 1.000000
vn -0.948683 0.316228 0.000000
vn 0.948683 -0.316228 0.000000
vn 1.000000 0.000000 0.000000
vn -1.000000 -0.000000 0.000000
vn 0.000000 0.000000 -1.000000
vn 0.000000 0.000000 1.000000
vn 0.000000 -1.000000 0.000000
vn -0.000000 1.000000 0.000000
vn -0.000000 1.000000 0.000000
vn 0.000000 -1.000000 0.000000
vn 0.000000 0.000000 -1.000000
vn 0.000000 0.000000 1.000000
vn 1.000000 0.000000 0.000000
vn -1.000000 -0.000000 0.000000
vn -1.000000 0.000000 0.000000
vn 1.000000 -0.000000 0.000000
vn 0.000000 0.000000 -1.000000
vn 0.000000 0.000000 1.000000
vn 0.000000 1.000000 0.000000
vn -0.000000 -1.000000 0.000000
vn 0.316228 -0.948683 0.000000
vn -0.316228 0.948683 0.000000
vn 0.000000 0.000000 -1.000000
vn 0.000000 0.000000 1.000000
vn -0.948683 -0.316228 0.000000
vn 0.948683 0.316228 0.000000
vn 0.970143 -0.242536 0.000000
vn -0.970143 0.242536 0.000000
vn 0.000000 0.000000 -1.000000
vn 0.000000 0.000000 1.000000
vn -0.242536 -0.970143 0.000000
vn 0.242536 0.970143 0.000000
vn -0.000000 -1.000000 0.000000
vn 0.000000 1.000000 0.000000
vn 0.000000 0.000000 -1.000000
vn 0.000000 0.000000 1.000000
vn -1.000000 0.000000 0.000000
vn 1.000000 -0.000000 0.000000
vn -0.970143 -0.242536 0.000000
vn 0.970143 0.242536 0.000000
vn 0.000000 0.000000 -1.000000
vn 0.000000 0.000000 1.000000
vn -0.242536 0.970143 0.000000
vn 0.242536 -0.970143 0.000000
vn -0.316228 -0.948683 0.000000
vn 0.316228 0.948683 0.000000
vn 0.000000 0.000000 -1.000000
vn 0.000000 0.000000 1.000000
vn -0.948683 0.316228 0.000000
vn 0.948683 -0.316228 0.000000
vn 0.100407 0.994946 0.000000
vn -0.100407 -0.994946 0.000000
vn 0.000000 0.000000 -1.000000
vn 0.000000 0.000000 1.000000
vn 0.994946 -0.100407 0.000000
vn -0.994946 0.100407 0.000000
vn 1.000000 0.000000 0.000000
vn -1.000000 -0.000000 0.000000
vn 0.000000 0.000000 -1.000000
vn 0.000000 0.000000 1.000000
vn 0.000000 -1.000000 0.000000
vn -0.000000 1.000000 0.000000
vn 0.030541 -0.999534 0.000000
vn -0.030541 0.999534 0.000000
vn 0.000000 0.000000 -1.000000
vn 0.000000 0.000000 1.000000
vn -0.999534 -0.030541 0.000000
vn 0.999534 0.030541 0.000000
vn -0.000000 1.000000 0.000000
vn 0.000000 -1.000000 0.000000
vn 0.000000 0.000000 -1.000000
vn 0.000000 0.000000 1.000000
vn 1.000000 0.000000 0.000000
vn -1.000000 -0.000000 0.000000
vn 0.999995 0.003039 0.000000
vn -0.999995 -0.003039 0.000000
vn 0.000000 0.000000 -1.000000
vn 0.000000 0.000000 1.000000
vn 0.003039 -0.999995 0.000000
vn -0.003039 0.999995 0.000000
vn 0.100407 -0.994946 0.000000
vn -0.100407 0.994946 0.000000
vn 0.000000 0.000000 -1.000000
vn 0.000000 0.000000 1.000000
vn -0.994946 -0.100407 0.000000
vn 0.994946 0.100407 0.000000
vn -0.000000 1.000000 0.000000
vn 0.000000 -1.000000 0.000000
vn 0.000000 0.000000 -1.000000
vn 0.000000 0.000000 1.000000
vn 1.000000 0.000000 0.000000
vn -1.000000 -0.000000 0.000000
vn -0.999973 0.007299 0.000000
vn 0.999973 -0.007299 0.000000
vn 0.000000 0.000000 -1.000000
vn 0.000000 0.000000 1.000000
vn 0.007299 0.999973 0.000000
vn -0.007299 -0.999973 0.000000
vn -0.041980 -0.999118 0.000000
vn 0.041980 0.999118 0.000000
vn 0.000000 0.000000 -1.000000
vn 0.000000 0.000000 1.000000
vn -0.999118 0.041980 0.000000
vn 0.999118 -0.041980 0.000000
vn 1.000000 0.000000 0.000000
vn -1.000000 -0.000000 0.000000
vn 0.000000 0.000000 -1.000000
vn 0.000000 0.000000 1.000000
vn 0.000000 -1.000000 0.000000
vn -0.000000 1.000000 0.000000
vn -0.000000 1.000000 0.000000
vn 0.000000 -1.000000 0.000000
vn 0.000000 0.000000 -1.000000
vn 0.000000 0.000000 1.000000
vn 1.000000 0.000000 0.000000
vn -1.000000 -0.000000 0.000000
vn -1.000000 0.000000 0.000000
vn 1.000000 -0.000000 0.000000
vn 0.000000 0.000000 -1.000000
vn 0.000000 0.000000 1.000000
vn 0.000000 1.000000 0.000000
vn -0.000000 -1.000000 0.000000
vn -0.000000 -1.000000 0.000000
vn 0.000000 1.000000 0.000000
vn 0.000000 0.000000 -1.000000
vn 0.000000 0.000000 1.000000
vn -1.000000 0.000000 0.000000
vn 1.000000 -0.000000 0.000000
vn 0.064951 0.997888 0.000000
vn -0.064951 -0.997888 0.000000
vn 0.000000 0.000000 -1.000000
vn 0.000000 0.000000 1.000000
vn 0.997888 -0.064951 0.000000
vn -0.997888 0.064951 0.000000
vn 1.000000 0.000000 0.000000
vn -1.000000 -0.000000 0.000000
vn 0.000000 0.000000 -1.000000
vn 0.000000 0.000000 1.000000
vn 0.000000 -1.000000 0.000000
vn -0.000000 1.000000 0.000000
vn 0.064951 -0.997888 0.000000
vn -0.064951 0.997888 0.000000
vn 0.000000 0.000000 -1.000000
vn 0.000000 0.000000 1.000000
vn -0.997888 -0.064951 0.000000
vn 0.997888 0.064951 0.000000
vn -0.000000 1.000000 0.000000
vn 0.000000 -1.000000 0.000000
vn 0.000000 0.000000 -1.000000
vn 0.000000 0.000000 1.000000
vn 1.000000 0.000000 0.000000
vn -1.000000 -0.000000 0.000000
vn -0.116228 -0.993223 0.000000
vn 0.116228 0.993223 0.000000
vn 0.000000 0.000000 -1.000000
vn 0.000000 0.000000 1.000000
vn -0.993223 0.116228 0.000000
vn 0.993223 -0.116228 0.000000
vn -1.000000 0.000000 0.000000
vn 1.000000 -0.000000 0.000000
vn 0.000000 0.000000 -1.000000
vn 0.000000 0.000000 1.000000
vn 0.000000 1.000000 0.000000
vn -0.000000 -1.000000 0.000000
vn -0.116228 0.993223 0.000000
vn 0.116228 -0.993223 0.000000
vn 0.000000 0.000000 -1.000000
vn 0.000000 0.000000 1.000000
vn 0.993223 0.116228 0.000000
vn -0.993223 -0.116228 0.000000
vn -0.000000 -1.000000 0.000000
vn 0.000000 1.000000 0.000000
vn 0.000000 0.000000 -1.000000
vn 0.000000 0.000000 1.000000
vn -1.000000 0.000000 0.000000
vn 1.000000 -0.000000 0.000000
vn 1.000000 0.000000 0.000000
vn -1.000000 -0.000000 0.000000
vn 0.000000 0.000000 -1.000000
vn 0.000000 0.000000 1.000000
vn 0.000000 -1.000000 0.000000
vn -0.000000 1.000000 0.000000
vn -0.000000 1.000000 0.000000
vn 0.000000 -1.000000 0.000000
vn 0.000000 0.000000 -1.000000
vn 0.000000 0.000000 1.000000
vn 1.000000 0.000000 0.000000
vn -1.000000 -0.000000 0.000000
vn -1.000000 0.000000 0.000000
vn 1.000000 -0.000000 0.000000
vn 0.000000 0.000000 -1.000000
vn 0.000000 0.000000 1.000000
vn 0.000000 1.000000 0.000000
vn -0.000000 -1.000000 0.000000
vn -0.000000 -1.000000 0.000000
vn 0.000000 1.000000 0.000000
vn 0.000000 0.000000 -1.000000
vn 0.000000 0.000000 1.000000
vn -1.000000 0.000000 0.000000
vn 1.000000 -0.000000 0.000000
vn 0.998406 0.056432 0.000000
vn -0.998406 -0.056432 0.000000
vn 0.000000 0.000000 -1.000000
vn 0.000000 0.000000 1.000000
vn 0.056432 -0.998406 0.000000
vn -0.056432 0.998406 0.000000
vn -0.995008 -0.099794 0.000000
vn 0.995008 0.099794 0.000000
vn 0.000000 0.000000 -1.000000
vn 0.000000 0.000000 1.000000
vn -0.099794 0.995008 0.000000
vn 0.099794 -0.995008 0.000000
vn -0.030541 0.999534 0.000000
vn 0.030541 -0.999534 0.000000
vn 0.000000 0.000000 -1.000000
vn 0.000000 0.000000 1.000000
vn 0.999534 0.030541 0.000000
vn -0.999534 -0.030541 0.000000
vn -0.000000 -1.000000 0.000000
vn 0.000000 1.000000 0.000000
vn 0.000000 0.000000 -1.000000
vn 0.000000 0.000000 1.000000
vn -1.000000 0.000000 0.000000
vn 1.000000 -0.000000 0.000000
vn -0.999844 -0.017644 0.000000
vn 0.999844 0.017644 0.000000
vn 0.000000 0.000000 -1.000000
vn 0.000000 0.000000 1.000000
vn -0.017644 0.999844 0.000000
vn 0.017644 -0.999844 0.000000

f 1/1 5/1 6/1 2/1
f 3/2 7/2 8/2 4/2
f 1/3 4/3 3/3 2/3
f 5/4 6/4 7/4 8/4
f 1/5 2/5 6/5 5/5
f 3/6 4/6 8/6 7/6
f 9/7 13/7 14/7 10/7
f 11/8 15/8 16/8 12/8
f 9/9 12/9 11/9 10/9
f 13/10 14/10 15/10 16/10
f 9/11 10/11 14/11 13/11
f 11/12 12/12 16/12 15/12
f 17/13 21/13 22/13 18/13
f 19/14 23/14 24/14 20/14
f 17/15 20/15 19/15 18/15
f 21/16 22/16 23/16 24/16
f 17/17 18/17 22/17 21/17
f 19/18 20/18 24/18 23/18
f 25/19 29/19 30/19 26/19
f 27/20 31/20 32/20 28/20
f 25/21 28/21 27/21 26/21
f 29/22 30/22 31/22 32/22
f 25/23 26/23 30/23 29/23
f 27/24 28/24 32/24 31/24
f 33/25 37/25 38/25 34/25
f 35/26 39/26 40/26 36/26
f 33/27 36/27 35/27 34/27
f 37/28 38/28 39/28 40/28
f 33/29 34/29 38/29 37/29
f 35/30 36/30 40/30 39/30
f 41/31 45/31 46/31 42/31
f 43/32 47/32 48/32 44/32
f 41/33 44/33 43/33 42/33
f 45/34 46/34 47/34 48/34
f 41/35 42/35 46/35 45/35
f 43/36 44/36 48/36 47/36
f 49/37 53/37 54/37 50/37
f 51/38 55/38 56/38 52/38
f 49/39 52/39 51/39 50/39
f 53/40 54/40 55/40 56/40
f 49/41 50/41 54/41 53/41
f 51/42 52/42 56/42 55/42
f 57/43 61/43 62/43 58/43
f 59/44 63/44 64/44 60/44
f 57/45 60/45 59/45 58/45
f 61/46 62/46 63/46 64/46
f 57/47 58/47 62/47 61/47
f 59/48 60/48 64/48 63/48
f 65/49 69/49 70/49 66/49
f 67/50 71/50 72/50 68/50
f 65/51 68/51 67/51 66/51
f 69/52 70/52 71/52 72/52
f 65/53 66/53 70/53 69/53
f 67/54 68/54 72/54 71/54
f 73/55 77/55 78/55 74/55
f 75/56 79/56 80/56 76/56
f 73/57 76/57 75/57 74/57
f 77/58 78/58 79/58 80/58
f 73/59 74/59 78/59 77/59
f 75/60 76/60 80/60 79/60
f 81/61 85/61 86/61 82/61
f 83/62 87/62 88/62 84/62
f 81/63 84/63 83/63 82/63
f 85/64 86/64 87/64 88/64
f 81/65 82/65 86/65 85/65
f 83/66 84/66 88/66 87/66
f 89/67 93/67 94/67 90/67
f 91/68 95/68 96/68 92/68
f 89/69 92/69 91/69 90/69
f 93/70 94/70 95/70 96/70
f 89/71 90/71 94/71 93/71
f 91/72 92/72 96/72 95/72
f 97/73 101/73 102/73 98/73
f 99/74 103/74 104/74 100/74
f 97/75 100/75 99/75 98/75
f 101/76 102/76 103/76 104/76
f 97/77 98/77 102/77 101/77
f 99/78 100/78 104/78 103/78
f 105/79 109/79 110/79 106/79
f 107/80 111/80 112/80 108/80
f 105/81 108/81 107/81 106/81
f 109/82 110/82 111/82 112/82
f 105/83 106/83 110/83 109/83
f 107/84 108/84 112/84 111/84
f 113/85 117/85 118/85 114/85
f 115/86 119/86 120/86 116/86
f 113/87 116/87 115/87 114/87
f 117/88 118/88 119/88 120/88
f 113/89 114/89 118/89 117/89
f 115/90 116/90 120/90 119/90
f 121/91 125/91 126/91 122/91
f 123/92 127/92 128/92 124/92
f 121/93 124/93 123/93 122/93
f 125/94 126/94 127/94 128/94
f 121/95 122/95 126/95 125/95
f 123/96 124/96 128/96 127/96
f 129/97 133/97 134/97 130/97
f 131/98 135/98 136/98 132/98
f 129/99 132/99 131/99 130/99
f 133/100 134/100 135/100 136/100
f 129/101 130/101 134/101 133/101
f 131/102 132/102 136/102 135/102
f 137/103 141/103 142/103 138/103
f 139/104 143/104 144/104 140/104
f 137/105 140/105 139/105 138/105
f 141/106 142/106 143/106 144/106
f 137/107 138/107 142/107 141/107
f 139/108 140/108 144/108 143/108
f 145/109 149/109 150/109 146/109
f 147/110 151/110 152/110 148/110
f 145/111 148/111 147/111 146/111
f 149/112 150/112 151/112 152/112
f 145/113 146/113 150/113 149/113
f 147/114 148/114 152/114 151/114
f 153/115 157/115 158/115 154/115
f 155/116 159/116 160/116 156/116
f 153/117 156/117 155/117 154/117
f 157/118 158/118 159/118 160/118
f 153/119 154/119 158/119 157/119
f 155/120 156/120 160/120 159/120
f 161/121 165/121 166/121 162/121
f 163/122 167/122 168/122 164/122
f 161/123 164/123 163/123 162/123
f 165/124 166/124 167/124 168/124
f 161/125 162/125 166/125 165/125
f 163/126 164/126 168/126 167/126
f 169/127 173/127 174/127 170/127
f 171/128 175/128 176/128 172/128
f 169/129 172/129 171/129 170/129
f 173/130 174/130 175/130 176/130
f 169/131 170/131 174/131 173/131
f 171/132 172/132 176/132 175/132
f 177/133 181/133 182/133 178/133
f 179/134 183/134 184/134 180/134
f 177/135 180/135 179/135 178/135
f 181/136 182/136 183/136 184/136
f 177/137 178/137 182/137 181/137
f 179/138 180/138 184/138 183/138
f 185/139 189/139 190/139 186/139
f 187/140 191/140 192/140 188/140
f 185/141 188/141 187/141 186/141
f 189/142 190/142 191/142 192/142
f 185/143 186/143 190/143 189/143
f 187/144 188/144 192/144 191/144
f 193/145 197/145 198/145 194/145
f 195/146 199/146 200/146 196/146
f 193/147 196/147 195/147 194/147
f 197/148 198/148 199/148 200/148
f 193/149 194/149 198/149 197/149
f 195/150 196/150 200/150 199/150
f 201/151 205/151 206/151 202/151
f 203/152 207/152 208/152 204/152
f 201/153 204/153 203/153 202/153
f 205/154 206/154 207/154 208/154
f 201/155 202/155 206/155 205/155
f 203/156 204/156 208/156 207/156
f 209/157 213/157 214/157 210/157
f 211/158 215/158 216/158 212/158
f 209/159 212/159 211/159 210/159
f 213/160 214/160 215/160 216/160
f 209/161 210/161 214/161 213/161
f 211/162 212/162 216/162 215/162
f 217/163 221/163 222/163 218/163
f 219/164 223/164 224/164 220/164
f 217/165 220/165 219/165 218/165
f 221/166 222/166 223/166 224/166
f 217/167 218/167 222/167 221/167
f 219/168 220/168 224/168 223/168
f 225/169 229/169 230/169 226/169
f 227/170 231/170 232/170 228/170
f 225/171 228/171 227/171 226/171
f 229/172 230/172 231/172 232/172
f 225/173 226/173 230/173 229/173
f 227/174 228/174 232/174 231/174
f 233/175 237/175 238/175 234/175
f 235/176 239/176 240/176 236/176
f 233/177 236/177 235/177 234/177
f 237/178 238/178 239/178 240/178
f 233/179 234/179 238/179 237/179
f 235/180 236/180 240/180 239/180
f 241/181 245/181 246/181 242/181
f 243/182 247/182 248/182 244/182
f 241/183 244/183 243/183 242/183
f 245/184 246/184 247/184 248/184
f 241/185 242/185 246/185 245/185
f 243/186 244/186 248/186 247/186
f 249/187 253/187 254/187 250/187
f 251/188 255/188 256/188 252/188
f 249/189 252/189 251/189 250/189
f 253/190 254/190 255/190 256/190
f 249/191 250/191 254/191 253/191
f 251/192 252/192 256/192 255/192
f 257/193 261/193 262/193 258/193
f 259/194 263/194 264/194 260/194
f 257/195 260/195 259/195 258/195
f 261/196 262/196 263/196 264/196
f 257/197 258/197 262/197 261/197
f 259/198 260/198 264/198 263/198
f 265/199 269/199 270/199 266/199
f 267/200 271/200 272/200 268/200
f 265/201 268/201 267/201 266/201
f 269/202 270/202 271/202 272/202
f 265/203 266/203 270/203 269/203
f 267/204 268/204 272/204 271/204
f 273/205 277/205 278/205 274/205
f 275/206 279/206 280/206 276/206
f 273/207 276/207 275/207 274/207
f 277/208 278/208 279/208 280/208
f 273/209 274/209 278/209 277/209
f 275/210 276/210 280/210 279/210
f 281/211 285/211 286/211 282/211
f 283/212 287/212 288/212 284/212
f 281/213 284/213 283/213 282/213
f 285/214 286/214 287/214 288/214
f 281/215 282/215 286/215 285/215
f 283/216 284/216 288/216 287/216
f 289/217 293/217 294/217 290/217
f 291/218 295/218 296/218 292/218
f 289/219 292/219 291/219 290/219
f 293/220 294/220 295/220 296/220
f 289/221 290/221 294/221 293/221
f 291/222 292/222 296/222 295/222
f 297/223 301/223 302/223 298/223
f 299/224 303/224 304/224 300/224
f 297/225 300/225 299/225 298/225
f 301/226 302/226 303/226 304/226
f 297/227 298/227 302/227 301/227
f 299/228 300/228 304/228 303/228
f 305/229 309/229 310/229 306/229
f 307/230 311/230 312/230 308/230
f 305/231 308/231 307/231 306/231
f 309/232 310/232 311/232 312/232
f 305/233 306/233 310/233 309/233
f 307/234 308/234 312/234 311/234
f 313/235 317/235 318/235 314/235
f 315/236 319/236 320/236 316/236
f 313/237 316/237 315/237 314/237
f 317/238 318/238 319/238 320/238
f 313/239 314/239 318/239 317/239
f 315/240 316/240 320/240 319/240
f 321/241 325/241 326/241 322/241
f 323/242 327/242 328/242 324/242
f 321/243 324/243 323/243 322/243
f 325/244 326/244 327/244 328/244
f 321/245 322/245 326/245 325/245
f 323/246 324/246 328/246 327/246
f 329/247 333/247 334/247 330/247
f 331/248 335/248 336/248 332/248
f 329/249 332/249 331/249 330/249
f 333/250 334/250 335/250 336/250
f 329/251 330/251 334/251 333/251
f 331/252 332/252 336/252 335/252
f 337/253 341/253 342/253 338/253
f 339/254 343/254 344/254 340/254
f 337/255 340/255 339/255 338/255
f 341/256 342/256 343/256 344/256
f 337/257 338/257 342/257 341/257
f 339/258 340/258 344/258 343/258
f 345/259 349/259 350/259 346/259
f 347/260 351/260 352/260 348/260
f 345/261 348/261 347/261 346/261
f 349/262 350/262 351/262 352/262
f 345/263 346/263 350/263 349/263
f 347/264 348/264 352/264 351/264
f 353/265 357/265 358/265 354/265
f 355/266 359/266 360/266 356/266
f 353/267 356/267 355/267 354/267
f 357/268 358/268 359/268 360/268
f 353/269 354/269 358/269 357/269
f 355/270 356/270 360/270 359/270
f 361/271 365/271 366/271 362/271
f 363/272 367/272 368/272 364/272
f 361/273 364/273 363/273 362/273
f 365/274 366/274 367/274 368/274
f 361/275 362/275 366/275 365/275
f 363/276 364/276 368/276 367/276
f 369/277 373/277 374/277 370/277
f 371/278 375/278 376/278 372/278
f 369/279 372/279 371/279 370/279
f 373/280 374/280 375/280 376/280
f 369/281 370/281 374/281 373/281
f 371/282 372/282 376/282 375/282
f 377/283 381/283 382/283 378/283
f 379/284 383/284 384/284 380/284
f 377/285 380/285 379/285 378/285
f 381/286 382/286 383/286 384/286
f 377/287 378/287 382/287 381/287
f 379/288 380/288 384/288 383/288
f 385/289 389/289 390/289 386/289
f 387/290 391/290 392/290 388/290
f 385/291 388/291 387/291 386/291
f 389/292 390/292 391/292 392/292
f 385/293 386/293 390/293 389/293
f 387/294 388/294 392/294 391/294
f 393/295 397/295 398/295 394/295
f 395/296 399/296 400/296 396/296
f 393/297 396/297 395/297 394/297
f 397/298 398/298 399/298 400/298
f 393/299 394/299 398/299 397/299
f 395/300 396/300 400/300 399/300
f 401/301 405/301 406/301 402/301
f 403/302 407/302 408/302 404/302
f 401/303 404/303 403/303 402/303
f 405/304 406/304 407/304 408/304
f 401/305 402/305 406/305 405/305
f 403/306 404/306 408/306 407/306
f 409/307 413/307 414/307 410/307
f 411/308 415/308 416/308 412/308
f 409/309 412/309 411/309 410/309
f 413/310 414/310 415/310 416/310
f 409/311 410/311 414/311 413/311
f 411/312 412/312 416/312 415/312
f 417/313 421/313 422/313 418/313
f 419/314 423/314 424/314 420/314
f 417/315 420/315 419/315 418/315
f 421/316 422/316 423/316 424/316
f 417/317 418/317 422/317 421/317
f 419/318 420/318 424/318 423/318
f 425/319 429/319 430/319 426/319
f 427/320 431/320 432/320 428/320
f 425/321 428/321 427/321 426/321
f 429/322 430/322 431/322 432/322
f 425/323 426/323 430/323 429/323
f 427/324 428/324 432/324 431/324
f 433/325 437/325 438/325 434/325
f 435/326 439/326 440/326 436/326
f 433/327 436/327 435/327 434/327
f 437/328 438/328 439/328 440/328
f 433/329 434/329 438/329 437/329
f 435/330 436/330 440/330 439/330
f 441/331 445/331 446/331 442/331
f 443/332 447/332 448/332 444/332
f 441/333 444/333 443/333 442/333
f 445/334 446/334 447/334 448/334
f 441/335 442/335 446/335 445/335
f 443/336 444/336 448/336 447/336
f 449/337 453/337 454/337 450/337
f 451/338 455/338 456/338 452/338
f 449/339 452/339 451/339 450/339
f 453/340 454/340 455/340 456/340
f 449/341 450/341 454/341 453/341
f 451/342 452/342 456/342 455/342
f 457/343 461/343 462/343 458/343
f 459/344 463/344 464/344 460/344
f 457/345 460/345 459/345 458/345
f 461/346 462/346 463/346 464/346
f 457/347 458/347 462/347 461/347
f 459/348 460/348 464/348 463/348
f 465/349 469/349 470/349 466/349
f 467/350 471/350 472/350 468/350
f 465/351 468/351 467/351 466/351
f 469/352 470/352 471/352 472/352
f 465/353 466/353 470/353 469/353
f 467/354 468/354 472/354 471/354
f 473/355 477/355 478/355 474/355
f 475/356 479/356 480/356 476/356
f 473/357 476/357 475/357 474/357
f 477/358 478/358 479/358 480/358
f 473/359 474/359 478/359 477/359
f 475/360 476/360 480/360 479/360
f 481/361 485/361 486/361 482/361
f 483/362 487/362 488/362 484/362
f 481/363 484/363 483/363 482/363
f 485/364 486/364 487/364 488/364
f 481/365 482/365 486/365 485/365
f 483/366 484/366 488/366 487/366
f 489/367 493/367 494/367 490/367
f 491/368 495/368 496/368 492/368
f 489/369 492/369 491/369 490/369
f 493/370 494/370 495/370 496/370
f 489/371 490/371 494/371 493/371
f 491/372 492/372 496/372 495/372
f 497/373 501/373 502/373 498/373
f 499/374 503/374 504/374 500/374
f 497/375 500/375 499/375 498/375
f 501/376 502/376 503/376 504/376
f 497/377 498/377 502/377 501/377
f 499/378 500/378 504/378 503/378
f 505/379 509/379 510/379 506/379
f 507/380 511/380 512/380 508/380
f 505/381 508/381 507/381 506/381
f 509/382 510/382 511/382 512/382
f 505/383 506/383 510/383 509/383
f 507/384 508/384 512/384 511/384
f 513/385 517/385 518/385 514/385
f 515/386 519/386 520/386 516/386
f 513/387 516/387 515/387 514/387
f 517/388 518/388 519/388 520/388
f 513/389 514/389 518/389 517/389
f 515/390 516/390 520/390 519/390
f 521/391 525/391 526/391 522/391
f 523/392 527/392 528/392 524/392
f 521/393 524/393 523/393 522/393
f 525/394 526/394 527/394 528/394
f 521/395 522/395 526/395 525/395
f 523/396 524/396 528/396 527/396
f 529/397 533/397 534/397 530/397
f 531/398 535/398 536/398 532/398
f 529/399 532/399 531/399 530/399
f 533/400 534/400 535/400 536/400
f 529/401 530/401 534/401 533/401
f 531/402 532/402 536/402 535/402
f 537/403 541/403 542/403 538/403
f 539/404 543/404 544/404 540/404
f 537/405 540/405 539/405 538/405
f 541/406 542/406 543/406 544/406
f 537/407 538/407 542/407 541/407
f 539/408 540/408 544/408 543/408
f 545/409 549/409 550/409 546/409
f 547/410 551/410 552/410 548/410
f 545/411 548/411 547/411 546/411
f 549/412 550/412 551/412 552/412
f 545/413 546/413 550/413 549/413
f 547/414 548/414 552/414 551/414
f 553/415 557/415 558/415 554/415
f 555/416 559/416 560/416 556/416
f 553/417 556/417 555/417 554/417
f 557/418 558/418 559/418 560/418
f 553/419 554/419 558/419 557/419
f 555/420 556/420 560/420 559/420
f 561/421 565/421 566/421 562/421
f 563/422 567/422 568/422 564/422
f 561/423 564/423 563/423 562/423
f 565/424 566/424 567/424 568/424
f 561/425 562/425 566/425 565/425
f 563/426 564/426 568/426 567/426
f 569/427 573/427 574/427 570/427
f 571/428 575/428 576/428 572/428
f 569/429 572/429 571/429 570/429
f 573/430 574/430 575/430 576/430
f 569/431 570/431 574/431 573/431
f 571/432 572/432 576/432 575/432
f 577/433 581/433 582/433 578/433
f 579/434 583/434 584/434 580/434
f 577/435 580/435 579/435 578/435
f 581/436 582/436 583/436 584/436
f 577/437 578/437 582/437 581/437
f 579/438 580/438 584/438 583/438
f 585/439 589/439 590/439 586/439
f 587/440 591/440 592/440 588/440
f 585/441 588/441 587/441 586/441
f 589/442 590/442 591/442 592/442
f 585/443 586/443 590/443 589/443
f 587/444 588/444 592/444 591/444
f 593/445 597/445 598/445 594/445
f 595/446 599/446 600/446 596/446
f 593/447 596/447 595/447 594/447
f 597/448 598/448 599/448 600/448
f 593/449 594/449 598/449 597/449
f 595/450 596/450 600/450 599/450
f 601/451 605/451 606/451 602/451
f 603/452 607/452 608/452 604/452
f 601/453 604/453 603/453 602/453
f 605/454 606/454 607/454 608/454
f 601/455 602/455 606/455 605/455
f 603/456 604/456 608/456 607/456
f 609/457 613/457 614/457 610/457
f 611/458 615/458 616/458 612/458
f 609/459 612/459 611/459 610/459
f 613/460 614/460 615/460 616/460
f 609/461 610/461 614/461 613/461
f 611/462 612/462 616/462 615/462
f 617/463 621/463 622/463 618/463
f 619/464 623/464 624/464 620/464
f 617/465 620/465 619/465 618/465
f 621/466 622/466 623/466 624/466
f 617/467 618/467 622/467 621/467
f 619/468 620/468 624/468 623/468
f 625/469 629/469 630/469 626/469
f 627/470 631/470 632/470 628/470
f 625/471 628/471 627/471 626/471
f 629/472 630/472 631/472 632/472
f 625/473 626/473 630/473 629/473
f 627/474 628/474 632/474 631/474
f 633/475 637/475 638/475 634/475
f 635/476 639/476 640/476 636/476
f 633/477 636/477 635/477 634/477
f 637/478 638/478 639/478 640/478
f 633/479 634/479 638/479 637/479
f 635/480 636/480 640/480 639/480
f 641/481 645/481 646/481 642/481
f 643/482 647/482 648/482 644/482
f 641/483 644/483 643/483 642/483
f 645/484 646/484 647/484 648/484
f 641/485 642/485 646/485 645/485
f 643/486 644/486 648/486 647/486
f 649/487 653/487 654/487 650/487
f 651/488 655/488 656/488 652/488
f 649/489 652/489 651/489 650/489
f 653/490 654/490 655/490 656/490
f 649/491 650/491 654/491 653/491
f 651/492 652/492 656/492 655/492
f 657/493 661/493 662/493 658/493
f 659/494 663/494 664/494 660/494
f 657/495 660/495 659/495 658/495
f 661/496 662/496 663/496 664/496
f 657/497 658/497 662/497 661/497
f 659/498 660/498 664/498 663/498
f 665/499 669/499 670/499 666/499
f 667/500 671/500 672/500 668/500
f 665/501 668/501 667/501 666/501
f 669/502 670/502 671/502 672/502
f 665/503 666/503 670/503 669/503
f 667/504 668/504 672/504 671/504
f 673/505 677/505 678/505 674/505
f 675/506 679/506 680/506 676/506
f 673/507 676/507 675/507 674/507
f 677/508 678/508 679/508 680/508
f 673/509 674/509 678/509 677/509
f 675/510 676/510 680/510 679/510
f 681/511 685/511 686/511 682/511
f 683/512 687/512 688/512 684/512
f 681/513 684/513 683/513 682/513
f 685/514 686/514 687/514 688/514
f 681/515 682/515 686/515 685/515
f 683/516 684/516 688/516 687/516
f 689/517 693/517 694/517 690/517
f 691/518 695/518 696/518 692/518
f 689/519 692/519 691/519 690/519
f 693/520 694/520 695/520 696/520
f 689/521 690/521 694/521 693/521
f 691/522 692/522 696/522 695/522
f 697/523 701/523 702/523 698/523
f 699/524 703/524 704/524 700/524
f 697/525 700/525 699/525 698/525
f 701/526 702/526 703/526 704/526
f 697/527 698/527 702/527 701/527
f 699/528 700/528 704/528 703/528
f 705/529 709/529 710/529 706/529
f 707/530 711/530 712/530 708/530
f 705/531 708/531 707/531 706/531
f 709/532 710/532 711/532 712/532
f 705/533 706/533 710/533 709/533
f 707/534 708/534 712/534 711/534
f 713/535 717/535 718/535 714/535
f 715/536 719/536 720/536 716/536
f 713/537 716/537 715/537 714/537
f 717/538 718/538 719/538 720/538
f 713/539 714/539 718/539 717/539
f 715/540 716/540 720/540 719/540
f 721/541 725/541 726/541 722/541
f 723/542 727/542 728/542 724/542
f 721/543 724/543 723/543 722/543
f 725/544 726/544 727/544 728/544
f 721/545 722/545 726/545 725/545
f 723/546 724/546 728/546 727/546
f 729/547 733/547 734/547 730/547
f 731/548 735/548 736/548 732/548
f 729/549 732/549 731/549 730/549
f 733/550 734/550 735/550 736/550
f 729/551 730/551 734/551 733/551
f 731/552 732/552 736/552 735/552
f 737/553 741/553 742/553 738/553
f 739/554 743/554 744/554 740/554
f 737/555 740/555 739/555 738/555
f 741/556 742/556 743/556 744/556
f 737/557 738/557 742/557 741/557
f 739/558 740/558 744/558 743/558
f 745/559 749/559 750/559 746/559
f 747/560 751/560 752/560 748/560
f 745/561 748/561 747/561 746/561
f 749/562 750/562 751/562 752/562
f 745/563 746/563 750/563 749/563
f 747/564 748/564 752/564 751/564
f 753/565 757/565 758/565 754/565
f 755/566 759/566 760/566 756/566
f 753/567 756/567 755/567 754/567
f 757/568 758/568 759/568 760/568
f 753/569 754/569 758/569 757/569
f 755/570 756/570 760/570 759/570
f 761/571 765/571 766/571 762/571
f 763/572 767/572 768/572 764/572
f 761/573 764/573 763/573 762/573
f 765/574 766/574 767/574 768/574
f 761/575 762/575 766/575 765/575
f 763/576 764/576 768/576 767/576
f 769/577 773/577 774/577 770/577
f 771/578 775/578 776/578 772/578
f 769/579 772/579 771/579 770/579
f 773/580 774/580 775/580 776/580
f 769/581 770/581 774/581 773/581
f 771/582 772/582 776/582 775/582
f 777/583 781/583 782/583 778/583
f 779/584 783/584 784/584 780/584
f 777/585 780/585 779/585 778/585
f 781/586 782/586 783/586 784/586
f 777/587 778/587 782/587 781/587
f 779/588 780/588 784/588 783/588
f 785/589 789/589 790/589 786/589
f 787/590 791/590 792/590 788/590
f 785/591 788/591 787/591 786/591
f 789/592 790/592 791/592 792/592
f 785/593 786/593 790/593 789/593
f 787/594 788/594 792/594 791/594
f 793/595 797/595 798/595 794/595
f 795/596 799/596 800/596 796/596
f 793/597 796/597 795/597 794/597
f 797/598 798/598 799/598 800/598
f 793/599 794/599 798/599 797/599
f 795/600 796/600 800/600 799/600
f 801/601 805/601 806/601 802/601
f 803/602 807/602 808/602 804/602
f 801/603 804/603 803/603 802/603
f 805/604 806/604 807/604 808/604
f 801/605 802/605 806/605 805/605
f 803/606 804/606 808/606 807/606
f 809/607 813/607 814/607 810/607
f 811/608 815/608 816/608 812/608
f 809/609 812/609 811/609 810/609
f 813/610 814/610 815/610 816/610
f 809/611 810/611 814/611 813/611
f 811/612 812/612 816/612 815/612
